<svg width="16" height="16" viewBox="0 0 16 16" fill="none" xmlns="http://www.w3.org/2000/svg">
<g id="icon/search">
<path id="Shape" fill-rule="evenodd" clip-rule="evenodd" d="M10.6009 9.96781L10.329 9.69596C11.2351 8.69918 11.7787 7.33993 11.7787 5.89007C11.7787 2.62788 9.15117 0 5.88937 0C2.62756 0 0 2.62788 0 5.89007C0 9.15226 2.62756 11.7801 5.88937 11.7801C7.33906 11.7801 8.69814 11.2364 9.6948 10.3303L9.96662 10.6021V11.3271L13.8173 15.1782C14.1926 15.5536 14.8012 15.5536 15.1765 15.1782C15.5518 14.8029 15.5518 14.1944 15.1765 13.8191L11.3257 9.96781H10.6009ZM5.7931 9.37931C3.80077 9.37931 2.2069 7.78544 2.2069 5.7931C2.2069 3.80077 3.80077 2.2069 5.7931 2.2069C7.78544 2.2069 9.37931 3.80077 9.37931 5.7931C9.37931 7.78544 7.78544 9.37931 5.7931 9.37931Z" fill="#fff"/>
</g>
</svg>
